HIERARCHY
ROOT root
{
	OFFSET	0	13.1	24.9
	CHANNELS 6  Xposition Yposition Zposition Xrotation Yrotation Zrotation
	JOINT spine_1
	{
		OFFSET	0	9.99999	0
		CHANNELS 3  Xrotation Yrotation Zrotation
		JOINT spine_2
		{
			OFFSET	0	112	-10
			CHANNELS 3  Xrotation Yrotation Zrotation
			JOINT spine_3
			{
				OFFSET	0	206.5	19.3
				CHANNELS 3  Xrotation Yrotation Zrotation
				JOINT spine_4
				{
					OFFSET	0	110.4	14.6
					CHANNELS 3  Xrotation Yrotation Zrotation
					JOINT neck_1
					{
						OFFSET	0	71.8	-50.3
						CHANNELS 3  Xrotation Yrotation Zrotation
						JOINT neck_2
						{
							OFFSET	0	86.2	-25.8
							CHANNELS 3  Xrotation Yrotation Zrotation
							JOINT head_ee
							{
								OFFSET	0	179.8	-8.7
								CHANNELS 3  Xrotation Yrotation Zrotation
								End Site
								{
									OFFSET	1	0	0
								}
							}
						}
					}
					JOINT left_clavicle
					{
						OFFSET	-43.2	22.4	-70.8
						CHANNELS 3  Xrotation Yrotation Zrotation
						JOINT left_shoulder
						{
							OFFSET	-93.9	-5.79999	48.7
							CHANNELS 3  Xrotation Yrotation Zrotation
							JOINT left_elbow
							{
								OFFSET	-291.4	-30.8	15.2
								CHANNELS 3  Xrotation Yrotation Zrotation
								JOINT left_lowarm_twist
								{
									OFFSET	-110.7	-3.89999	13.6
									CHANNELS 3  Xrotation Yrotation Zrotation
									JOINT left_hand
									{
										OFFSET	-110.7	-3.89999	13.6
										CHANNELS 3  Xrotation Yrotation Zrotation
										JOINT left_ee
										{
											OFFSET	-80.8	-5.10001	12.1
											CHANNELS 3  Xrotation Yrotation Zrotation
											End Site
											{
												OFFSET	1	0	0
											}
										}
									}
								}
							}
						}
					}
					JOINT right_clavicle
					{
						OFFSET	43.2	22.4	-70.8
						CHANNELS 3  Xrotation Yrotation Zrotation
						JOINT right_shoulder
						{
							OFFSET	93.9	-5.79999	48.7
							CHANNELS 3  Xrotation Yrotation Zrotation
							JOINT right_elbow
							{
								OFFSET	291.4	-30.8	15.2
								CHANNELS 3  Xrotation Yrotation Zrotation
								JOINT right_lowarm_twist
								{
									OFFSET	110.7	-3.89999	13.6
									CHANNELS 3  Xrotation Yrotation Zrotation
									JOINT right_hand
									{
										OFFSET	110.7	-3.89999	13.6
										CHANNELS 3  Xrotation Yrotation Zrotation
										JOINT right_ee
										{
											OFFSET	80.8	-5.10001	12.1
											CHANNELS 3  Xrotation Yrotation Zrotation
											End Site
											{
												OFFSET	1	0	0
											}
										}
									}
								}
							}
						}
					}
				}
			}
		}
	}
	JOINT left_hip
	{
		OFFSET	-82.8	-127.5	0.300001
		CHANNELS 3  Xrotation Yrotation Zrotation
		JOINT left_knee
		{
			OFFSET	-28.2	-396.7	2.2
			CHANNELS 3  Xrotation Yrotation Zrotation
			JOINT left_ankle
			{
				OFFSET	-11.7	-411.3	35.4
				CHANNELS 3  Xrotation Yrotation Zrotation
				JOINT left_toes
				{
					OFFSET	0	-60	-88.6
					CHANNELS 3  Xrotation Yrotation Zrotation
					JOINT left_foot_ee
					{
						OFFSET	-22.5	-16.5	-42.2
						CHANNELS 3  Xrotation Yrotation Zrotation
						End Site
						{
							OFFSET	1	0	0
						}
					}
				}
			}
		}
	}
	JOINT right_hip
	{
		OFFSET	82.8	-127.5	0.300001
		CHANNELS 3  Xrotation Yrotation Zrotation
		JOINT right_knee
		{
			OFFSET	28.2	-396.7	2.2
			CHANNELS 3  Xrotation Yrotation Zrotation
			JOINT right_ankle
			{
				OFFSET	11.7	-411.3	35.4
				CHANNELS 3  Xrotation Yrotation Zrotation
				JOINT right_toes
				{
					OFFSET	0	-60	-88.6
					CHANNELS 3  Xrotation Yrotation Zrotation
					JOINT right_foot_ee
					{
						OFFSET	22.5	-16.5	-42.2
						CHANNELS 3  Xrotation Yrotation Zrotation
						End Site
						{
							OFFSET	1	0	0
						}
					}
				}
			}
		}
	}
}
MOTION
Frames: 9
Frame Time: 0.02
3107.06 750.675 -562.049 -171.684 -75.399 -179.137 1.86774 0.488554 2.89215 1.87235 0.303609 2.91735 1.88791 -0.22015 2.92482 1.87605 0.244331 2.9229 -6.67203 7.57781 -3.51722 -6.60906 16.6044 -2.03351 -0.0 0.0 -0.0 4.49307 5.11345 8.85115 -43.4511 -22.2698 59.8084 0.681301 -18.6494 0.11187 10.7744 0.253236 -1.35101 -1.30874 19.1278 -0.114134 -0.0 0.0 -0.0 5.02322 3.45058 -9.57601 -4.99961 33.4656 -65.4438 2.34891 49.3165 -1.07842 -28.3665 1.80723 -3.10632 0.339981 -3.29619 -3.63224 0.0 0.0 0.0 12.8089 -3.92089 -0.424798 -19.4595 0.301678 2.95665 24.9383 28.7537 -3.58557 -10.9711 0.0 0.0 -0.0 0.0 -0.0 15.1072 31.5926 -2.26246 -15.5335 -0.322088 -2.35474 0.935694 -6.42315 0.1367 -3.05847 0.0 0.0 0.0 0.0 0.0 
3120.26 764.658 -551.575 -174.139 -73.2045 178.733 1.73516 0.754421 3.0717 1.74024 0.557529 3.11342 1.77105 -0.0112684 3.16288 1.75742 0.488143 3.12504 -6.56357 8.65303 -2.28845 -6.52076 17.7052 -0.598088 -0.0 0.0 -0.0 4.22152 4.8606 8.34066 -44.6744 -22.2413 60.1531 0.658397 -18.0639 0.104657 12.1607 0.267238 -1.52753 -0.995144 19.5901 1.96105 -0.0 0.0 -0.0 5.15952 3.30824 -9.85515 -6.80392 33.6002 -66.6225 2.65086 52.7008 -1.31322 -28.2166 1.79381 -3.09256 -0.00968029 -3.05672 -1.21862 0.0 0.0 0.0 11.8086 -3.56727 -0.685964 -18.1187 0.313285 2.75126 19.3161 28.3187 -2.83571 -11.9894 0.0 0.0 -0.0 0.0 -0.0 12.0811 28.7385 -2.11163 -10.0783 -0.281966 -1.51901 2.40129 -5.9159 0.349608 -2.6215 0.0 0.0 0.0 0.0 0.0 
3130.07 764.059 -547.749 -175.673 -71.3643 176.993 1.71474 0.932094 3.27089 1.7204 0.722189 3.32349 1.76303 0.112733 3.3991 1.74749 0.64784 3.33876 -6.48659 9.71764 -1.29683 -6.45307 18.957 0.598928 -0.0 0.0 -0.0 4.04438 4.58361 8.00229 -45.3358 -22.2749 60.3447 0.667948 -18.3085 0.107638 13.1304 0.274492 -1.65117 -0.70453 20.3325 4.00242 -0.0 0.0 -0.0 5.26276 3.30112 -10.0624 -8.21542 33.6864 -66.9947 2.97228 55.8055 -1.57418 -28.0624 1.78004 -3.07837 -0.38054 -2.88053 1.3099 0.0 0.0 0.0 11.0948 -3.29171 -0.652691 -14.5959 0.320858 2.2109 13.4692 28.1309 -2.01773 -12.9348 0.0 0.0 -0.0 0.0 -0.0 10.2691 26.6342 -2.82668 -2.4473 -0.0930006 -0.364037 2.55936 -5.41991 0.372613 -2.69557 0.0 0.0 0.0 0.0 0.0 
3131.98 757.764 -542.888 -174.954 -70.3285 177.894 1.77969 1.01214 3.37211 1.78566 0.795642 3.42959 1.83399 0.170404 3.51644 1.81747 0.723289 3.44555 -6.44602 10.4711 -0.617801 -6.41587 19.8596 1.42419 -0.0 0.0 -0.0 3.869 4.37449 7.66828 -45.7966 -22.3006 60.4676 0.674678 -18.4805 0.109762 13.801 0.278284 -1.73674 -0.499469 20.8455 5.42648 -0.0 0.0 -0.0 5.34766 3.29409 -10.233 -9.16635 33.752 -67.2746 3.22923 57.9763 -1.78945 -27.9447 1.76956 -3.06751 -0.640491 -2.76723 3.08086 0.0 0.0 0.0 10.3839 -2.99449 -0.588727 -12.4069 0.308827 1.87527 9.33969 27.9758 -1.41624 -13.597 0.0 0.0 -0.0 0.0 -0.0 9.03361 25.0338 -3.27801 2.89406 0.129951 0.425009 2.67183 -5.07611 0.388993 -2.72342 0.0 0.0 0.0 0.0 0.0 
3135.75 755.133 -542.242 -171.358 -70.2162 -178.746 2.1139 0.904208 3.33954 2.11984 0.689998 3.39023 2.16066 0.0930347 3.4584 2.14453 0.637738 3.40044 -6.18967 10.9495 -0.500125 -6.14642 20.6383 1.59188 -0.0 0.0 -0.0 3.69839 4.26127 7.34629 -46.2834 -22.3281 60.6006 0.693877 -18.9692 0.115925 14.2699 0.280341 -1.7966 -0.336876 21.3068 6.57073 -0.0 0.0 -0.0 5.33966 3.15653 -10.2221 -9.82087 33.6173 -67.338 3.42639 59.4808 -1.95798 -27.8627 1.76228 -3.05994 -0.828698 -2.75337 4.33583 0.0 0.0 0.0 8.58185 -2.57363 -2.16769 -11.8505 0.303725 1.79005 6.01237 28.1846 -0.921557 -14.157 0.0 0.0 -0.0 0.0 -0.0 7.91632 23.9638 -1.52082 6.50034 0.321713 0.944759 3.26252 -4.75307 0.474381 -2.5806 0.0 0.0 0.0 0.0 0.0 
3146.54 754.054 -540.374 -170.383 -72.5376 -177.608 2.24723 0.705177 3.30882 2.25318 0.49332 3.34693 2.2816 -0.0863819 3.38194 2.26592 0.448511 3.35322 -5.75088 11.8404 -0.747216 -5.67316 22.4264 1.43051 -0.0 0.0 -0.0 3.58309 4.18112 7.12822 -46.9134 -23.1327 59.5145 0.782608 -21.1903 0.146395 14.1955 0.280047 -1.7871 -0.170462 21.6312 7.67887 -0.0 0.0 -0.0 5.37772 3.0252 -10.3032 -11.4387 33.0401 -67.1155 3.34916 58.907 -1.89164 -27.1892 1.70283 -2.99733 -0.964707 -2.92989 5.16167 0.0 0.0 0.0 7.23415 -2.11676 -1.25847 -10.6124 0.289407 1.60063 3.05437 28.7005 -0.473259 -14.9557 0.0 0.0 -0.0 0.0 -0.0 7.568 22.4632 -1.94412 5.82811 0.283486 0.848788 3.7593 -4.52123 0.545993 -2.1673 0.0 0.0 0.0 0.0 0.0 
3154.76 753.766 -543.343 -169.945 -74.1192 -177.446 2.32935 0.607647 3.27449 2.33523 0.398169 3.30647 2.3576 -0.16895 3.32605 2.34235 0.358163 3.31104 -5.40274 12.8206 -0.900233 -5.28677 24.315 1.38443 -0.0 0.0 -0.0 3.4692 4.1309 6.91401 -47.4004 -23.6605 58.7016 0.846753 -22.7558 0.170398 14.1707 0.279946 -1.78394 -0.0530657 21.846 8.45335 -0.0 0.0 -0.0 5.46957 2.92179 -10.4908 -13.096 32.5907 -66.8673 3.20086 57.7488 -1.76542 -26.7179 1.66166 -2.9531 -1.04871 -3.10276 5.64336 0.0 0.0 0.0 6.79549 -1.7796 -1.14617 -8.90928 0.263027 1.34063 0.951756 29.0614 -0.148535 -15.9624 0.0 0.0 -0.0 0.0 -0.0 7.16938 21.3114 -1.73069 5.38365 0.258832 0.785095 4.24781 -4.40015 0.616167 -1.87721 0.0 0.0 0.0 0.0 0.0 
3160.51 758.63 -542.237 -168.223 -74.3958 -175.521 2.41183 0.540483 3.22017 2.41754 0.334592 3.24799 2.43575 -0.217321 3.25793 2.42106 0.299656 3.2514 -5.15948 13.5175 -1.03773 -5.0102 25.6765 1.31521 -0.0 0.0 -0.0 3.39117 4.06591 6.76559 -47.5799 -24.0533 58.0402 0.892668 -23.8548 0.188564 14.1744 0.279961 -1.78441 0.029251 21.9959 8.99539 -0.0 0.0 -0.0 5.40559 2.87181 -10.3645 -14.5943 32.2204 -66.612 3.08753 56.8105 -1.67007 -26.3896 1.63321 -2.9221 -1.10631 -3.23272 5.96835 0.0 0.0 0.0 6.91646 -1.50394 -1.1883 -7.71116 0.239843 1.15824 -0.585895 29.3091 0.0918885 -16.6755 0.0 0.0 -0.0 0.0 -0.0 6.09651 20.4404 -1.31222 4.87856 0.231418 0.71249 4.63673 -4.31427 0.671889 -1.65292 0.0 0.0 0.0 0.0 0.0 
3167.21 763.302 -541.087 -167.554 -74.6264 -174.641 2.46553 0.494022 3.17945 2.47111 0.290811 3.20441 2.48653 -0.250349 3.20782 2.47226 0.259141 3.20712 -5.03282 14.0168 -1.11289 -4.86078 26.6389 1.29638 -0.0 0.0 -0.0 3.39157 4.01333 6.7636 -47.4164 -24.3487 57.4484 0.926568 -24.6545 0.20249 14.1698 0.279942 -1.78381 0.0853822 22.0797 9.35791 -0.0 0.0 -0.0 5.37211 2.87224 -10.2975 -15.6387 31.9839 -66.4679 2.99148 55.9767 -1.59008 -26.1525 1.61277 -2.89961 -1.14034 -3.34423 6.14473 0.0 0.0 0.0 6.99143 -1.22635 -0.996251 -7.00237 0.224333 1.05058 -1.69784 29.4611 0.267147 -17.1752 0.0 0.0 -0.0 0.0 -0.0 5.35232 19.8672 -1.03956 4.33911 0.202849 0.634686 4.87504 -4.24349 0.705985 -1.50139 0.0 0.0 0.0 0.0 0.0 
